<?xml version="1.0" encoding="UTF-8" standalone="no"?>
<!DOCTYPE svg PUBLIC "-//W3C//DTD SVG 1.1//EN"
 "http://www.w3.org/Graphics/SVG/1.1/DTD/svg11.dtd">
<!-- Generated by graphviz version 2.34.0 (20131029.2215)
 -->
<!-- Title: controllers_diagram Pages: 1 -->
<svg width="514pt" height="301pt"
 viewBox="0.00 0.00 514.38 301.00" xmlns="http://www.w3.org/2000/svg" xmlns:xlink="http://www.w3.org/1999/xlink">
<g id="graph0" class="graph" transform="scale(1 1) rotate(0) translate(4 297)">
<title>controllers_diagram</title>
<polygon fill="white" stroke="white" points="-4,4 -4,-297 510.375,-297 510.375,4 -4,4"/>
<!-- _diagram_info -->
<g id="node1" class="node"><title>_diagram_info</title>
<text text-anchor="start" x="307" y="-276" font-family="Times,serif" font-size="13.00">Controllers diagram</text>
<text text-anchor="start" x="307" y="-260.4" font-family="Times,serif" font-size="13.00">Date: Oct 29 2013 &#45; 18:17</text>
<text text-anchor="start" x="307" y="-244.8" font-family="Times,serif" font-size="13.00">Migration version: 20131029010533</text>
<text text-anchor="start" x="307" y="-229.2" font-family="Times,serif" font-size="13.00">Generated by RailRoady 1.1.1</text>
<text text-anchor="start" x="307" y="-213.6" font-family="Times,serif" font-size="13.00">http://railroady.prestonlee.com</text>
</g>
<!-- ApplicationController -->
<g id="node2" class="node"><title>ApplicationController</title>
<ellipse fill="none" stroke="black" cx="185.532" cy="-79.8396" rx="96.1448" ry="18"/>
<text text-anchor="middle" x="185.532" y="-74.2396" font-family="Times,serif" font-size="14.00">ApplicationController</text>
</g>
<!-- GoalsController -->
<g id="node3" class="node"><title>GoalsController</title>
<ellipse fill="none" stroke="black" cx="280.008" cy="-38.8243" rx="73.0201" ry="18"/>
<text text-anchor="middle" x="280.008" y="-33.2243" font-family="Times,serif" font-size="14.00">GoalsController</text>
</g>
<!-- ApplicationController&#45;&gt;GoalsController -->
<g id="edge1" class="edge"><title>ApplicationController&#45;&gt;GoalsController</title>
<path fill="none" stroke="black" d="M223.687,-63.2753C228.784,-61.0625 234.028,-58.7859 239.168,-56.5541"/>
<polyline fill="none" stroke="black" points="243.854,-54.5202 239.267,-56.5114 "/>
</g>
<!-- GroupsController -->
<g id="node4" class="node"><title>GroupsController</title>
<ellipse fill="none" stroke="black" cx="105.592" cy="-18" rx="79.3268" ry="18"/>
<text text-anchor="middle" x="105.592" y="-12.4" font-family="Times,serif" font-size="14.00">GroupsController</text>
</g>
<!-- ApplicationController&#45;&gt;GroupsController -->
<g id="edge2" class="edge"><title>ApplicationController&#45;&gt;GroupsController</title>
<path fill="none" stroke="black" d="M162.838,-62.2843C153.306,-54.9106 142.151,-46.2812 132.232,-38.6085"/>
<polyline fill="none" stroke="black" points="128.066,-35.3852 132.02,-38.4446 "/>
</g>
<!-- HotspotsController -->
<g id="node5" class="node"><title>HotspotsController</title>
<ellipse fill="none" stroke="black" cx="85.0715" cy="-119.95" rx="85.1431" ry="18"/>
<text text-anchor="middle" x="85.0715" y="-114.35" font-family="Times,serif" font-size="14.00">HotspotsController</text>
</g>
<!-- ApplicationController&#45;&gt;HotspotsController -->
<g id="edge3" class="edge"><title>ApplicationController&#45;&gt;HotspotsController</title>
<path fill="none" stroke="black" d="M144.671,-96.1542C139.782,-98.1062 134.77,-100.107 129.83,-102.08"/>
<polyline fill="none" stroke="black" points="124.92,-104.04 129.564,-102.186 "/>
</g>
<!-- RidesController -->
<g id="node6" class="node"><title>RidesController</title>
<ellipse fill="none" stroke="black" cx="260.861" cy="-141.21" rx="72.9544" ry="18"/>
<text text-anchor="middle" x="260.861" y="-135.61" font-family="Times,serif" font-size="14.00">RidesController</text>
</g>
<!-- ApplicationController&#45;&gt;RidesController -->
<g id="edge4" class="edge"><title>ApplicationController&#45;&gt;RidesController</title>
<path fill="none" stroke="black" d="M207.32,-97.5904C216.058,-104.709 226.191,-112.965 235.276,-120.366"/>
<polyline fill="none" stroke="black" points="239.641,-123.922 235.765,-120.764 "/>
</g>
</g>
</svg>
