<?xml version="1.0" encoding="UTF-8" standalone="no"?>
<!DOCTYPE svg PUBLIC "-//W3C//DTD SVG 1.1//EN"
 "http://www.w3.org/Graphics/SVG/1.1/DTD/svg11.dtd">
<!-- Generated by graphviz version 2.34.0 (20131029.2215)
 -->
<!-- Title: controllers_diagram Pages: 1 -->
<svg width="633pt" height="608pt"
 viewBox="0.00 0.00 633.38 608.11" xmlns="http://www.w3.org/2000/svg" xmlns:xlink="http://www.w3.org/1999/xlink">
<g id="graph0" class="graph" transform="scale(1 1) rotate(0) translate(4 604.113)">
<title>controllers_diagram</title>
<polygon fill="white" stroke="white" points="-4,4 -4,-604.113 629.375,-604.113 629.375,4 -4,4"/>
<!-- _diagram_info -->
<g id="node1" class="node"><title>_diagram_info</title>
<text text-anchor="start" x="426" y="-145" font-family="Times,serif" font-size="13.00">Controllers diagram</text>
<text text-anchor="start" x="426" y="-129.4" font-family="Times,serif" font-size="13.00">Date: Oct 29 2013 &#45; 18:17</text>
<text text-anchor="start" x="426" y="-113.8" font-family="Times,serif" font-size="13.00">Migration version: 20131029010533</text>
<text text-anchor="start" x="426" y="-98.2" font-family="Times,serif" font-size="13.00">Generated by RailRoady 1.1.1</text>
<text text-anchor="start" x="426" y="-82.6" font-family="Times,serif" font-size="13.00">http://railroady.prestonlee.com</text>
</g>
<!-- ApplicationController -->
<g id="node2" class="node"><title>ApplicationController</title>
<path fill="none" stroke="black" d="M144.396,-250.643C144.396,-250.643 260.038,-250.643 260.038,-250.643 266.038,-250.643 272.038,-256.643 272.038,-262.643 272.038,-262.643 272.038,-336.243 272.038,-336.243 272.038,-342.243 266.038,-348.243 260.038,-348.243 260.038,-348.243 144.396,-348.243 144.396,-348.243 138.396,-348.243 132.396,-342.243 132.396,-336.243 132.396,-336.243 132.396,-262.643 132.396,-262.643 132.396,-256.643 138.396,-250.643 144.396,-250.643"/>
<text text-anchor="middle" x="202.217" y="-330.243" font-family="Times,serif" font-size="14.00">ApplicationController</text>
<polyline fill="none" stroke="black" points="132.396,-323.443 272.038,-323.443 "/>
<polyline fill="none" stroke="black" points="132.396,-299.443 272.038,-299.443 "/>
<polyline fill="none" stroke="black" points="132.396,-275.443 272.038,-275.443 "/>
<text text-anchor="start" x="140.396" y="-257.443" font-family="Times,serif" font-size="14.00">_layout</text>
</g>
<!-- GoalsController -->
<g id="node3" class="node"><title>GoalsController</title>
<path fill="none" stroke="black" d="M244.596,-0.5C244.596,-0.5 326.803,-0.5 326.803,-0.5 332.803,-0.5 338.803,-6.5 338.803,-12.5 338.803,-12.5 338.803,-221.3 338.803,-221.3 338.803,-227.3 332.803,-233.3 326.803,-233.3 326.803,-233.3 244.596,-233.3 244.596,-233.3 238.596,-233.3 232.596,-227.3 232.596,-221.3 232.596,-221.3 232.596,-12.5 232.596,-12.5 232.596,-6.5 238.596,-0.5 244.596,-0.5"/>
<text text-anchor="middle" x="285.7" y="-215.3" font-family="Times,serif" font-size="14.00">GoalsController</text>
<polyline fill="none" stroke="black" points="232.596,-208.5 338.803,-208.5 "/>
<text text-anchor="start" x="240.596" y="-190.5" font-family="Times,serif" font-size="14.00">create</text>
<text text-anchor="start" x="240.596" y="-173.7" font-family="Times,serif" font-size="14.00">destroy</text>
<text text-anchor="start" x="240.596" y="-156.9" font-family="Times,serif" font-size="14.00">edit</text>
<text text-anchor="start" x="240.596" y="-140.1" font-family="Times,serif" font-size="14.00">index</text>
<text text-anchor="start" x="240.596" y="-123.3" font-family="Times,serif" font-size="14.00">new</text>
<text text-anchor="start" x="240.596" y="-106.5" font-family="Times,serif" font-size="14.00">show</text>
<text text-anchor="start" x="240.596" y="-89.7" font-family="Times,serif" font-size="14.00">update</text>
<polyline fill="none" stroke="black" points="232.596,-82.9 338.803,-82.9 "/>
<polyline fill="none" stroke="black" points="232.596,-58.9 338.803,-58.9 "/>
<text text-anchor="start" x="240.596" y="-40.9" font-family="Times,serif" font-size="14.00">_layout</text>
<text text-anchor="start" x="240.596" y="-24.1" font-family="Times,serif" font-size="14.00">goal_params</text>
<text text-anchor="start" x="240.596" y="-7.3" font-family="Times,serif" font-size="14.00">set_goal</text>
</g>
<!-- ApplicationController&#45;&gt;GoalsController -->
<g id="edge1" class="edge"><title>ApplicationController&#45;&gt;GoalsController</title>
<path fill="none" stroke="black" d="M224.589,-250.525C226.469,-246.414 228.416,-242.156 230.409,-237.798"/>
<polyline fill="none" stroke="black" points="232.589,-233.03 230.51,-237.577 "/>
</g>
<!-- GroupsController -->
<g id="node4" class="node"><title>GroupsController</title>
<path fill="none" stroke="black" d="M18.4489,-13.1336C18.4489,-13.1336 109.214,-13.1336 109.214,-13.1336 115.214,-13.1336 121.214,-19.1336 121.214,-25.1336 121.214,-25.1336 121.214,-233.934 121.214,-233.934 121.214,-239.934 115.214,-245.934 109.214,-245.934 109.214,-245.934 18.4489,-245.934 18.4489,-245.934 12.4489,-245.934 6.44887,-239.934 6.44887,-233.934 6.44887,-233.934 6.44887,-25.1336 6.44887,-25.1336 6.44887,-19.1336 12.4489,-13.1336 18.4489,-13.1336"/>
<text text-anchor="middle" x="63.8317" y="-227.934" font-family="Times,serif" font-size="14.00">GroupsController</text>
<polyline fill="none" stroke="black" points="6.44887,-221.134 121.214,-221.134 "/>
<text text-anchor="start" x="14.4489" y="-203.134" font-family="Times,serif" font-size="14.00">create</text>
<text text-anchor="start" x="14.4489" y="-186.334" font-family="Times,serif" font-size="14.00">destroy</text>
<text text-anchor="start" x="14.4489" y="-169.534" font-family="Times,serif" font-size="14.00">edit</text>
<text text-anchor="start" x="14.4489" y="-152.734" font-family="Times,serif" font-size="14.00">index</text>
<text text-anchor="start" x="14.4489" y="-135.934" font-family="Times,serif" font-size="14.00">new</text>
<text text-anchor="start" x="14.4489" y="-119.134" font-family="Times,serif" font-size="14.00">show</text>
<text text-anchor="start" x="14.4489" y="-102.334" font-family="Times,serif" font-size="14.00">update</text>
<polyline fill="none" stroke="black" points="6.44887,-95.5336 121.214,-95.5336 "/>
<polyline fill="none" stroke="black" points="6.44887,-71.5336 121.214,-71.5336 "/>
<text text-anchor="start" x="14.4489" y="-53.5336" font-family="Times,serif" font-size="14.00">_layout</text>
<text text-anchor="start" x="14.4489" y="-36.7336" font-family="Times,serif" font-size="14.00">group_params</text>
<text text-anchor="start" x="14.4489" y="-19.9336" font-family="Times,serif" font-size="14.00">set_group</text>
</g>
<!-- ApplicationController&#45;&gt;GroupsController -->
<g id="edge2" class="edge"><title>ApplicationController&#45;&gt;GroupsController</title>
<path fill="none" stroke="black" d="M162.19,-250.298C150.416,-235.842 137.263,-219.692 124.502,-204.024"/>
<polyline fill="none" stroke="black" points="121.267,-200.053 124.425,-203.93 "/>
</g>
<!-- HotspotsController -->
<g id="node5" class="node"><title>HotspotsController</title>
<path fill="none" stroke="black" d="M12,-349.706C12,-349.706 111.331,-349.706 111.331,-349.706 117.331,-349.706 123.331,-355.706 123.331,-361.706 123.331,-361.706 123.331,-570.506 123.331,-570.506 123.331,-576.506 117.331,-582.506 111.331,-582.506 111.331,-582.506 12,-582.506 12,-582.506 6,-582.506 0,-576.506 0,-570.506 0,-570.506 0,-361.706 0,-361.706 0,-355.706 6,-349.706 12,-349.706"/>
<text text-anchor="middle" x="61.6655" y="-564.506" font-family="Times,serif" font-size="14.00">HotspotsController</text>
<polyline fill="none" stroke="black" points="0,-557.706 123.331,-557.706 "/>
<text text-anchor="start" x="8" y="-539.706" font-family="Times,serif" font-size="14.00">create</text>
<text text-anchor="start" x="8" y="-522.906" font-family="Times,serif" font-size="14.00">destroy</text>
<text text-anchor="start" x="8" y="-506.106" font-family="Times,serif" font-size="14.00">edit</text>
<text text-anchor="start" x="8" y="-489.306" font-family="Times,serif" font-size="14.00">index</text>
<text text-anchor="start" x="8" y="-472.506" font-family="Times,serif" font-size="14.00">new</text>
<text text-anchor="start" x="8" y="-455.706" font-family="Times,serif" font-size="14.00">show</text>
<text text-anchor="start" x="8" y="-438.906" font-family="Times,serif" font-size="14.00">update</text>
<polyline fill="none" stroke="black" points="0,-432.106 123.331,-432.106 "/>
<polyline fill="none" stroke="black" points="0,-408.106 123.331,-408.106 "/>
<text text-anchor="start" x="8" y="-390.106" font-family="Times,serif" font-size="14.00">_layout</text>
<text text-anchor="start" x="8" y="-373.306" font-family="Times,serif" font-size="14.00">hotspot_params</text>
<text text-anchor="start" x="8" y="-356.506" font-family="Times,serif" font-size="14.00">set_hotspot</text>
</g>
<!-- ApplicationController&#45;&gt;HotspotsController -->
<g id="edge3" class="edge"><title>ApplicationController&#45;&gt;HotspotsController</title>
<path fill="none" stroke="black" d="M160.807,-348.546C150.075,-361.272 138.255,-375.287 126.631,-389.071"/>
<polyline fill="none" stroke="black" points="123.358,-392.952 126.582,-389.13 "/>
</g>
<!-- RidesController -->
<g id="node6" class="node"><title>RidesController</title>
<path fill="none" stroke="black" d="M242.711,-366.813C242.711,-366.813 324.146,-366.813 324.146,-366.813 330.146,-366.813 336.146,-372.813 336.146,-378.813 336.146,-378.813 336.146,-587.613 336.146,-587.613 336.146,-593.613 330.146,-599.613 324.146,-599.613 324.146,-599.613 242.711,-599.613 242.711,-599.613 236.711,-599.613 230.711,-593.613 230.711,-587.613 230.711,-587.613 230.711,-378.813 230.711,-378.813 230.711,-372.813 236.711,-366.813 242.711,-366.813"/>
<text text-anchor="middle" x="283.428" y="-581.613" font-family="Times,serif" font-size="14.00">RidesController</text>
<polyline fill="none" stroke="black" points="230.711,-574.813 336.146,-574.813 "/>
<text text-anchor="start" x="238.711" y="-556.813" font-family="Times,serif" font-size="14.00">create</text>
<text text-anchor="start" x="238.711" y="-540.013" font-family="Times,serif" font-size="14.00">destroy</text>
<text text-anchor="start" x="238.711" y="-523.213" font-family="Times,serif" font-size="14.00">edit</text>
<text text-anchor="start" x="238.711" y="-506.413" font-family="Times,serif" font-size="14.00">index</text>
<text text-anchor="start" x="238.711" y="-489.613" font-family="Times,serif" font-size="14.00">new</text>
<text text-anchor="start" x="238.711" y="-472.813" font-family="Times,serif" font-size="14.00">show</text>
<text text-anchor="start" x="238.711" y="-456.013" font-family="Times,serif" font-size="14.00">update</text>
<polyline fill="none" stroke="black" points="230.711,-449.213 336.146,-449.213 "/>
<polyline fill="none" stroke="black" points="230.711,-425.213 336.146,-425.213 "/>
<text text-anchor="start" x="238.711" y="-407.213" font-family="Times,serif" font-size="14.00">_layout</text>
<text text-anchor="start" x="238.711" y="-390.413" font-family="Times,serif" font-size="14.00">ride_params</text>
<text text-anchor="start" x="238.711" y="-373.613" font-family="Times,serif" font-size="14.00">set_ride</text>
</g>
<!-- ApplicationController&#45;&gt;RidesController -->
<g id="edge4" class="edge"><title>ApplicationController&#45;&gt;RidesController</title>
<path fill="none" stroke="black" d="M223.98,-348.69C225.883,-352.996 227.857,-357.462 229.878,-362.037"/>
<polyline fill="none" stroke="black" points="231.915,-366.645 229.894,-362.072 "/>
</g>
</g>
</svg>
