<?xml version="1.0" encoding="UTF-8" standalone="no"?>
<!DOCTYPE svg PUBLIC "-//W3C//DTD SVG 1.1//EN"
 "http://www.w3.org/Graphics/SVG/1.1/DTD/svg11.dtd">
<!-- Generated by graphviz version 2.34.0 (20131029.2215)
 -->
<!-- Title: models_diagram Pages: 1 -->
<svg width="589pt" height="310pt"
 viewBox="0.00 0.00 589.00 310.00" xmlns="http://www.w3.org/2000/svg" xmlns:xlink="http://www.w3.org/1999/xlink">
<g id="graph0" class="graph" transform="scale(1 1) rotate(0) translate(4 306)">
<title>models_diagram</title>
<polygon fill="white" stroke="white" points="-4,4 -4,-306 585,-306 585,4 -4,4"/>
<!-- _diagram_info -->
<g id="node1" class="node"><title>_diagram_info</title>
<text text-anchor="start" x="36.3123" y="-285" font-family="Times,serif" font-size="13.00">Models diagram</text>
<text text-anchor="start" x="36.3123" y="-269.4" font-family="Times,serif" font-size="13.00">Date: Oct 29 2013 &#45; 18:17</text>
<text text-anchor="start" x="36.3123" y="-253.8" font-family="Times,serif" font-size="13.00">Migration version: 20131029010533</text>
<text text-anchor="start" x="36.3123" y="-238.2" font-family="Times,serif" font-size="13.00">Generated by RailRoady 1.1.1</text>
<text text-anchor="start" x="36.3123" y="-222.6" font-family="Times,serif" font-size="13.00">http://railroady.prestonlee.com</text>
</g>
<!-- Group -->
<g id="node2" class="node"><title>Group</title>
<ellipse fill="none" stroke="black" cx="87" cy="-162" rx="35.5667" ry="18"/>
<text text-anchor="middle" x="87" y="-156.4" font-family="Times,serif" font-size="14.00">Group</text>
</g>
<!-- GroupMembership -->
<g id="node3" class="node"><title>GroupMembership</title>
<ellipse fill="none" stroke="black" cx="84" cy="-90" rx="84.2867" ry="18"/>
<text text-anchor="middle" x="84" y="-84.4" font-family="Times,serif" font-size="14.00">GroupMembership</text>
</g>
<!-- Group&#45;&gt;GroupMembership -->
<g id="edge1" class="edge"><title>Group&#45;&gt;GroupMembership</title>
<path fill="none" stroke="#17e499" d="M85.9131,-135.64C85.6741,-130.063 85.4199,-124.132 85.1775,-118.476"/>
<ellipse fill="none" stroke="#17e499" cx="86.0871" cy="-139.7" rx="4" ry="4"/>
<polygon fill="#17e499" stroke="#17e499" points="85.1613,-118.095 89.2289,-107.912 84.9472,-113.1 84.733,-108.104 84.733,-108.104 84.733,-108.104 84.9472,-113.1 80.2372,-108.297 85.1613,-118.095 85.1613,-118.095"/>
</g>
<!-- Hotspot -->
<g id="node4" class="node"><title>Hotspot</title>
<ellipse fill="none" stroke="black" cx="480" cy="-90" rx="41.4294" ry="18"/>
<text text-anchor="middle" x="480" y="-84.4" font-family="Times,serif" font-size="14.00">Hotspot</text>
</g>
<!-- Point -->
<g id="node5" class="node"><title>Point</title>
<ellipse fill="none" stroke="black" cx="550" cy="-18" rx="31.1459" ry="18"/>
<text text-anchor="middle" x="550" y="-12.4" font-family="Times,serif" font-size="14.00">Point</text>
</g>
<!-- Hotspot&#45;&gt;Point -->
<g id="edge4" class="edge"><title>Hotspot&#45;&gt;Point</title>
<path fill="none" stroke="#faa502" d="M501.678,-67.3223C509.992,-59.0076 519.486,-49.5138 527.845,-41.155"/>
<ellipse fill="none" stroke="#faa502" cx="498.713" cy="-70.2875" rx="4.00002" ry="4.00002"/>
<polygon fill="#faa502" stroke="#faa502" points="528.065,-40.935 538.318,-37.0459 531.601,-37.3995 535.136,-33.8639 535.136,-33.8639 535.136,-33.8639 531.601,-37.3995 531.954,-30.6819 528.065,-40.935 528.065,-40.935"/>
</g>
<!-- Ride -->
<g id="node6" class="node"><title>Ride</title>
<ellipse fill="none" stroke="black" cx="480" cy="-162" rx="28.9157" ry="18"/>
<text text-anchor="middle" x="480" y="-156.4" font-family="Times,serif" font-size="14.00">Ride</text>
</g>
<!-- Ride&#45;&gt;Hotspot -->
<g id="edge7" class="edge"><title>Ride&#45;&gt;Hotspot</title>
<path fill="none" stroke="#4c1906" d="M480,-135.64C480,-130.063 480,-124.132 480,-118.476"/>
<ellipse fill="none" stroke="#4c1906" cx="480" cy="-139.697" rx="4" ry="4"/>
<polygon fill="#4c1906" stroke="#4c1906" points="480,-118.104 484.5,-108.104 480,-113.104 480,-108.104 480,-108.104 480,-108.104 480,-113.104 475.5,-108.104 480,-118.104 480,-118.104"/>
</g>
<!-- Ride&#45;&gt;Point -->
<g id="edge8" class="edge"><title>Ride&#45;&gt;Point</title>
<path fill="none" stroke="#b90057" d="M504.834,-139.993C514.005,-131.014 523.69,-119.867 530,-108 540.254,-88.713 545.265,-64.3732 547.705,-46.0242"/>
<polygon fill="#b90057" stroke="#b90057" points="504.645,-140.169 494.264,-143.705 500.99,-143.582 497.336,-146.994 497.336,-146.994 497.336,-146.994 500.99,-143.582 500.407,-150.283 504.645,-140.169 504.645,-140.169"/>
<polygon fill="#b90057" stroke="#b90057" points="547.716,-45.9301 553.335,-36.5136 548.291,-40.9633 548.865,-35.9964 548.865,-35.9964 548.865,-35.9964 548.291,-40.9633 544.395,-35.4792 547.716,-45.9301 547.716,-45.9301"/>
</g>
<!-- RideMembership -->
<g id="node7" class="node"><title>RideMembership</title>
<ellipse fill="none" stroke="black" cx="342" cy="-90" rx="78.1323" ry="18"/>
<text text-anchor="middle" x="342" y="-84.4" font-family="Times,serif" font-size="14.00">RideMembership</text>
</g>
<!-- User -->
<g id="node8" class="node"><title>User</title>
<ellipse fill="none" stroke="black" cx="250" cy="-162" rx="28.9087" ry="18"/>
<text text-anchor="middle" x="250" y="-156.4" font-family="Times,serif" font-size="14.00">User</text>
</g>
<!-- User&#45;&gt;GroupMembership -->
<g id="edge12" class="edge"><title>User&#45;&gt;GroupMembership</title>
<path fill="none" stroke="#d2b155" d="M219.057,-147.952C193.951,-137.365 158.188,-122.284 129.77,-110.3"/>
<ellipse fill="none" stroke="#d2b155" cx="222.883" cy="-149.565" rx="4.00002" ry="4.00002"/>
<polygon fill="#d2b155" stroke="#d2b155" points="129.654,-110.252 122.188,-102.22 125.047,-108.309 120.44,-106.366 120.44,-106.366 120.44,-106.366 125.047,-108.309 118.691,-110.513 129.654,-110.252 129.654,-110.252"/>
</g>
<!-- User&#45;&gt;RideMembership -->
<g id="edge13" class="edge"><title>User&#45;&gt;RideMembership</title>
<path fill="none" stroke="#cae299" d="M274.439,-142.405C286.063,-133.56 300.062,-122.91 312.294,-113.602"/>
<ellipse fill="none" stroke="#cae299" cx="270.922" cy="-145.081" rx="4.00002" ry="4.00002"/>
<polygon fill="#cae299" stroke="#cae299" points="312.472,-113.467 323.155,-110.993 316.451,-110.44 320.43,-107.412 320.43,-107.412 320.43,-107.412 316.451,-110.44 317.705,-103.831 312.472,-113.467 312.472,-113.467"/>
</g>
<!-- Goal -->
<g id="node10" class="node"><title>Goal</title>
<ellipse fill="none" stroke="black" cx="216" cy="-90" rx="29.216" ry="18"/>
<text text-anchor="middle" x="216" y="-84.4" font-family="Times,serif" font-size="14.00">Goal</text>
</g>
<!-- User&#45;&gt;Goal -->
<g id="edge11" class="edge"><title>User&#45;&gt;Goal</title>
<path fill="none" stroke="#f732ed" d="M238.318,-136.95C235.146,-130.418 231.699,-123.322 228.484,-116.703"/>
<ellipse fill="none" stroke="#f732ed" cx="240.195" cy="-140.813" rx="4.00002" ry="4.00002"/>
<polygon fill="#f732ed" stroke="#f732ed" points="228.369,-116.465 228.047,-105.504 226.184,-111.967 224,-107.47 224,-107.47 224,-107.47 226.184,-111.967 219.952,-109.436 228.369,-116.465 228.369,-116.465"/>
</g>
<!-- ActiveRecord::Base -->
<g id="node9" class="node"><title>ActiveRecord::Base</title>
<ellipse fill="none" stroke="black" cx="342" cy="-259" rx="88.2033" ry="18"/>
<text text-anchor="middle" x="342" y="-253.4" font-family="Times,serif" font-size="14.00">ActiveRecord::Base</text>
</g>
<!-- ActiveRecord::Base&#45;&gt;Group -->
<g id="edge2" class="edge"><title>ActiveRecord::Base&#45;&gt;Group</title>
<path fill="none" stroke="black" d="M307.35,-242.355C288.72,-234.145 265.266,-224.132 244,-216 202.297,-200.054 153.457,-183.963 121.46,-173.764"/>
<polyline fill="none" stroke="black" points="116.472,-172.178 121.237,-173.693 "/>
</g>
<!-- ActiveRecord::Base&#45;&gt;GroupMembership -->
<g id="edge3" class="edge"><title>ActiveRecord::Base&#45;&gt;GroupMembership</title>
<path fill="none" stroke="black" d="M313.771,-241.799C287.211,-226.382 246.479,-202.295 212,-180 176.549,-157.077 136.78,-129.048 111.116,-110.645"/>
<polyline fill="none" stroke="black" points="106.807,-107.55 110.868,-110.467 "/>
</g>
<!-- ActiveRecord::Base&#45;&gt;Hotspot -->
<g id="edge5" class="edge"><title>ActiveRecord::Base&#45;&gt;Hotspot</title>
<path fill="none" stroke="black" d="M355.992,-241.068C381.54,-210.151 435.64,-144.683 463.16,-111.379"/>
<polyline fill="none" stroke="black" points="466.38,-107.482 463.195,-111.336 "/>
</g>
<!-- ActiveRecord::Base&#45;&gt;Point -->
<g id="edge6" class="edge"><title>ActiveRecord::Base&#45;&gt;Point</title>
<path fill="none" stroke="black" d="M397.271,-244.837C435.363,-233.296 484.897,-213.068 518,-180 555.032,-143.007 555.398,-76.2189 552.648,-41.4332"/>
<polyline fill="none" stroke="black" points="552.185,-36.1346 552.621,-41.1156 "/>
</g>
<!-- ActiveRecord::Base&#45;&gt;Ride -->
<g id="edge9" class="edge"><title>ActiveRecord::Base&#45;&gt;Ride</title>
<path fill="none" stroke="black" d="M366.038,-241.452C391.588,-223.864 431.705,-196.246 456.894,-178.906"/>
<polyline fill="none" stroke="black" points="461.11,-176.004 456.992,-178.839 "/>
</g>
<!-- ActiveRecord::Base&#45;&gt;RideMembership -->
<g id="edge10" class="edge"><title>ActiveRecord::Base&#45;&gt;RideMembership</title>
<path fill="none" stroke="black" d="M342,-240.757C342,-210.381 342,-147.355 342,-113.562"/>
<polyline fill="none" stroke="black" points="342,-108.399 342,-113.399 "/>
</g>
<!-- ActiveRecord::Base&#45;&gt;User -->
<g id="edge14" class="edge"><title>ActiveRecord::Base&#45;&gt;User</title>
<path fill="none" stroke="black" d="M325.552,-241.016C309.407,-224.344 284.84,-198.976 268.137,-181.728"/>
<polyline fill="none" stroke="black" points="264.489,-177.961 267.967,-181.553 "/>
</g>
</g>
</svg>
