<?xml version="1.0" encoding="UTF-8" standalone="no"?>
<!DOCTYPE svg PUBLIC "-//W3C//DTD SVG 1.1//EN"
 "http://www.w3.org/Graphics/SVG/1.1/DTD/svg11.dtd">
<!-- Generated by graphviz version 2.34.0 (20131029.2215)
 -->
<!-- Title: models_diagram Pages: 1 -->
<svg width="737pt" height="892pt"
 viewBox="0.00 0.00 737.42 892.00" xmlns="http://www.w3.org/2000/svg" xmlns:xlink="http://www.w3.org/1999/xlink">
<g id="graph0" class="graph" transform="scale(1 1) rotate(0) translate(4 888)">
<title>models_diagram</title>
<polygon fill="white" stroke="white" points="-4,4 -4,-888 733.417,-888 733.417,4 -4,4"/>
<!-- _diagram_info -->
<g id="node1" class="node"><title>_diagram_info</title>
<text text-anchor="start" x="115.312" y="-867" font-family="Times,serif" font-size="13.00">Models diagram</text>
<text text-anchor="start" x="115.312" y="-851.4" font-family="Times,serif" font-size="13.00">Date: Oct 29 2013 &#45; 18:17</text>
<text text-anchor="start" x="115.312" y="-835.8" font-family="Times,serif" font-size="13.00">Migration version: 20131029010533</text>
<text text-anchor="start" x="115.312" y="-820.2" font-family="Times,serif" font-size="13.00">Generated by RailRoady 1.1.1</text>
<text text-anchor="start" x="115.312" y="-804.6" font-family="Times,serif" font-size="13.00">http://railroady.prestonlee.com</text>
</g>
<!-- Group -->
<g id="node2" class="node"><title>Group</title>
<path fill="none" stroke="black" d="M11.4946,-544C11.4946,-544 120.505,-544 120.505,-544 126.505,-544 132.505,-550 132.505,-556 132.505,-556 132.505,-632 132.505,-632 132.505,-638 126.505,-644 120.505,-644 120.505,-644 11.4946,-644 11.4946,-644 5.49463,-644 -0.505371,-638 -0.505371,-632 -0.505371,-632 -0.505371,-556 -0.505371,-556 -0.505371,-550 5.49463,-544 11.4946,-544"/>
<text text-anchor="middle" x="66" y="-626" font-family="Times,serif" font-size="14.00">Group</text>
<polyline fill="none" stroke="black" points="-0.505371,-619.2 132.505,-619.2 "/>
<text text-anchor="start" x="7.49463" y="-601.2" font-family="Times,serif" font-size="14.00">id :integer</text>
<text text-anchor="start" x="7.49463" y="-584.4" font-family="Times,serif" font-size="14.00">name :string</text>
<text text-anchor="start" x="7.49463" y="-567.6" font-family="Times,serif" font-size="14.00">created_at :datetime</text>
<text text-anchor="start" x="7.49463" y="-550.8" font-family="Times,serif" font-size="14.00">updated_at :datetime</text>
</g>
<!-- GroupMembership -->
<g id="node3" class="node"><title>GroupMembership</title>
<path fill="none" stroke="black" d="M106.495,-255.6C106.495,-255.6 215.505,-255.6 215.505,-255.6 221.505,-255.6 227.505,-261.6 227.505,-267.6 227.505,-267.6 227.505,-360.4 227.505,-360.4 227.505,-366.4 221.505,-372.4 215.505,-372.4 215.505,-372.4 106.495,-372.4 106.495,-372.4 100.495,-372.4 94.4946,-366.4 94.4946,-360.4 94.4946,-360.4 94.4946,-267.6 94.4946,-267.6 94.4946,-261.6 100.495,-255.6 106.495,-255.6"/>
<text text-anchor="middle" x="161" y="-354.4" font-family="Times,serif" font-size="14.00">GroupMembership</text>
<polyline fill="none" stroke="black" points="94.4946,-347.6 227.505,-347.6 "/>
<text text-anchor="start" x="102.495" y="-329.6" font-family="Times,serif" font-size="14.00">id :integer</text>
<text text-anchor="start" x="102.495" y="-312.8" font-family="Times,serif" font-size="14.00">user_id :integer</text>
<text text-anchor="start" x="102.495" y="-296" font-family="Times,serif" font-size="14.00">group_id :integer</text>
<text text-anchor="start" x="102.495" y="-279.2" font-family="Times,serif" font-size="14.00">created_at :datetime</text>
<text text-anchor="start" x="102.495" y="-262.4" font-family="Times,serif" font-size="14.00">updated_at :datetime</text>
</g>
<!-- Group&#45;&gt;GroupMembership -->
<g id="edge1" class="edge"><title>Group&#45;&gt;GroupMembership</title>
<path fill="none" stroke="#01bda5" d="M85.4212,-536.167C100.67,-491.545 121.941,-429.299 138.034,-382.207"/>
<ellipse fill="none" stroke="#01bda5" cx="84.0589" cy="-540.154" rx="4.00001" ry="4.00001"/>
<polygon fill="#01bda5" stroke="#01bda5" points="138.048,-382.163 145.54,-374.156 139.665,-377.432 141.282,-372.701 141.282,-372.701 141.282,-372.701 139.665,-377.432 137.024,-371.245 138.048,-382.163 138.048,-382.163"/>
</g>
<!-- Hotspot -->
<g id="node4" class="node"><title>Hotspot</title>
<path fill="none" stroke="black" d="M489.495,-238.8C489.495,-238.8 598.505,-238.8 598.505,-238.8 604.505,-238.8 610.505,-244.8 610.505,-250.8 610.505,-250.8 610.505,-377.2 610.505,-377.2 610.505,-383.2 604.505,-389.2 598.505,-389.2 598.505,-389.2 489.495,-389.2 489.495,-389.2 483.495,-389.2 477.495,-383.2 477.495,-377.2 477.495,-377.2 477.495,-250.8 477.495,-250.8 477.495,-244.8 483.495,-238.8 489.495,-238.8"/>
<text text-anchor="middle" x="544" y="-371.2" font-family="Times,serif" font-size="14.00">Hotspot</text>
<polyline fill="none" stroke="black" points="477.495,-364.4 610.505,-364.4 "/>
<text text-anchor="start" x="485.495" y="-346.4" font-family="Times,serif" font-size="14.00">id :integer</text>
<text text-anchor="start" x="485.495" y="-329.6" font-family="Times,serif" font-size="14.00">location :string</text>
<text text-anchor="start" x="485.495" y="-312.8" font-family="Times,serif" font-size="14.00">length :string</text>
<text text-anchor="start" x="485.495" y="-296" font-family="Times,serif" font-size="14.00">avg_incline :string</text>
<text text-anchor="start" x="485.495" y="-279.2" font-family="Times,serif" font-size="14.00">ride_id :integer</text>
<text text-anchor="start" x="485.495" y="-262.4" font-family="Times,serif" font-size="14.00">created_at :datetime</text>
<text text-anchor="start" x="485.495" y="-245.6" font-family="Times,serif" font-size="14.00">updated_at :datetime</text>
</g>
<!-- Point -->
<g id="node5" class="node"><title>Point</title>
<path fill="none" stroke="black" d="M568.56,-0.6C568.56,-0.6 709.44,-0.6 709.44,-0.6 715.44,-0.6 721.44,-6.6 721.44,-12.6 721.44,-12.6 721.44,-189.4 721.44,-189.4 721.44,-195.4 715.44,-201.4 709.44,-201.4 709.44,-201.4 568.56,-201.4 568.56,-201.4 562.56,-201.4 556.56,-195.4 556.56,-189.4 556.56,-189.4 556.56,-12.6 556.56,-12.6 556.56,-6.6 562.56,-0.6 568.56,-0.6"/>
<text text-anchor="middle" x="639" y="-183.4" font-family="Times,serif" font-size="14.00">Point</text>
<polyline fill="none" stroke="black" points="556.56,-176.6 721.44,-176.6 "/>
<text text-anchor="start" x="564.56" y="-158.6" font-family="Times,serif" font-size="14.00">id :integer</text>
<text text-anchor="start" x="564.56" y="-141.8" font-family="Times,serif" font-size="14.00">hotspot_id :integer</text>
<text text-anchor="start" x="564.56" y="-125" font-family="Times,serif" font-size="14.00">name :string</text>
<text text-anchor="start" x="564.56" y="-108.2" font-family="Times,serif" font-size="14.00">latitude :float</text>
<text text-anchor="start" x="564.56" y="-91.4" font-family="Times,serif" font-size="14.00">longitude :float</text>
<text text-anchor="start" x="564.56" y="-74.6" font-family="Times,serif" font-size="14.00">elevation :float</text>
<text text-anchor="start" x="564.56" y="-57.8" font-family="Times,serif" font-size="14.00">description :string</text>
<text text-anchor="start" x="564.56" y="-41" font-family="Times,serif" font-size="14.00">point_created_at :datetime</text>
<text text-anchor="start" x="564.56" y="-24.2" font-family="Times,serif" font-size="14.00">created_at :datetime</text>
<text text-anchor="start" x="564.56" y="-7.4" font-family="Times,serif" font-size="14.00">updated_at :datetime</text>
</g>
<!-- Hotspot&#45;&gt;Point -->
<g id="edge4" class="edge"><title>Hotspot&#45;&gt;Point</title>
<path fill="none" stroke="#8f2e10" d="M580.811,-231.24C583.819,-224.56 586.887,-217.745 589.964,-210.912"/>
<ellipse fill="none" stroke="#8f2e10" cx="579.136" cy="-234.962" rx="4.00002" ry="4.00002"/>
<polygon fill="#8f2e10" stroke="#8f2e10" points="590.054,-210.711 598.263,-203.44 592.107,-206.152 594.16,-201.593 594.16,-201.593 594.16,-201.593 592.107,-206.152 590.056,-199.745 590.054,-210.711 590.054,-210.711"/>
</g>
<!-- Ride -->
<g id="node6" class="node"><title>Ride</title>
<path fill="none" stroke="black" d="M499.495,-502C499.495,-502 636.505,-502 636.505,-502 642.505,-502 648.505,-508 648.505,-514 648.505,-514 648.505,-674 648.505,-674 648.505,-680 642.505,-686 636.505,-686 636.505,-686 499.495,-686 499.495,-686 493.495,-686 487.495,-680 487.495,-674 487.495,-674 487.495,-514 487.495,-514 487.495,-508 493.495,-502 499.495,-502"/>
<text text-anchor="middle" x="568" y="-668" font-family="Times,serif" font-size="14.00">Ride</text>
<polyline fill="none" stroke="black" points="487.495,-661.2 648.505,-661.2 "/>
<text text-anchor="start" x="495.495" y="-643.2" font-family="Times,serif" font-size="14.00">id :integer</text>
<text text-anchor="start" x="495.495" y="-626.4" font-family="Times,serif" font-size="14.00">name :string</text>
<text text-anchor="start" x="495.495" y="-609.6" font-family="Times,serif" font-size="14.00">location :string</text>
<text text-anchor="start" x="495.495" y="-592.8" font-family="Times,serif" font-size="14.00">created_at :datetime</text>
<text text-anchor="start" x="495.495" y="-576" font-family="Times,serif" font-size="14.00">updated_at :datetime</text>
<text text-anchor="start" x="495.495" y="-559.2" font-family="Times,serif" font-size="14.00">gpx_file_name :string</text>
<text text-anchor="start" x="495.495" y="-542.4" font-family="Times,serif" font-size="14.00">gpx_content_type :string</text>
<text text-anchor="start" x="495.495" y="-525.6" font-family="Times,serif" font-size="14.00">gpx_file_size :integer</text>
<text text-anchor="start" x="495.495" y="-508.8" font-family="Times,serif" font-size="14.00">gpx_updated_at :datetime</text>
</g>
<!-- Ride&#45;&gt;Hotspot -->
<g id="edge7" class="edge"><title>Ride&#45;&gt;Hotspot</title>
<path fill="none" stroke="#a90340" d="M559.435,-493.785C556.782,-463.062 553.885,-429.507 551.325,-399.85"/>
<ellipse fill="none" stroke="#a90340" cx="559.797" cy="-497.987" rx="4" ry="4"/>
<polygon fill="#a90340" stroke="#a90340" points="551.295,-399.496 554.918,-389.146 550.865,-394.515 550.435,-389.533 550.435,-389.533 550.435,-389.533 550.865,-394.515 545.951,-389.92 551.295,-399.496 551.295,-399.496"/>
</g>
<!-- Ride&#45;&gt;Point -->
<g id="edge8" class="edge"><title>Ride&#45;&gt;Point</title>
<path fill="none" stroke="#65c947" d="M597.15,-491.855C605.449,-459.557 613.672,-423.498 619,-390 628.301,-331.525 633.277,-265.688 635.939,-211.736"/>
<polygon fill="#65c947" stroke="#65c947" points="597.094,-492.074 590.221,-500.618 595.835,-496.912 594.576,-501.751 594.576,-501.751 594.576,-501.751 595.835,-496.912 598.931,-502.884 597.094,-492.074 597.094,-492.074"/>
<polygon fill="#65c947" stroke="#65c947" points="635.952,-211.447 640.92,-201.671 636.189,-206.452 636.425,-201.458 636.425,-201.458 636.425,-201.458 636.189,-206.452 631.93,-201.245 635.952,-211.447 635.952,-211.447"/>
</g>
<!-- RideMembership -->
<g id="node7" class="node"><title>RideMembership</title>
<path fill="none" stroke="black" d="M338.495,-247.2C338.495,-247.2 447.505,-247.2 447.505,-247.2 453.505,-247.2 459.505,-253.2 459.505,-259.2 459.505,-259.2 459.505,-368.8 459.505,-368.8 459.505,-374.8 453.505,-380.8 447.505,-380.8 447.505,-380.8 338.495,-380.8 338.495,-380.8 332.495,-380.8 326.495,-374.8 326.495,-368.8 326.495,-368.8 326.495,-259.2 326.495,-259.2 326.495,-253.2 332.495,-247.2 338.495,-247.2"/>
<text text-anchor="middle" x="393" y="-362.8" font-family="Times,serif" font-size="14.00">RideMembership</text>
<polyline fill="none" stroke="black" points="326.495,-356 459.505,-356 "/>
<text text-anchor="start" x="334.495" y="-338" font-family="Times,serif" font-size="14.00">id :integer</text>
<text text-anchor="start" x="334.495" y="-321.2" font-family="Times,serif" font-size="14.00">ride_id :integer</text>
<text text-anchor="start" x="334.495" y="-304.4" font-family="Times,serif" font-size="14.00">user_id :integer</text>
<text text-anchor="start" x="334.495" y="-287.6" font-family="Times,serif" font-size="14.00">ride_date :string</text>
<text text-anchor="start" x="334.495" y="-270.8" font-family="Times,serif" font-size="14.00">created_at :datetime</text>
<text text-anchor="start" x="334.495" y="-254" font-family="Times,serif" font-size="14.00">updated_at :datetime</text>
</g>
<!-- User -->
<g id="node8" class="node"><title>User</title>
<path fill="none" stroke="black" d="M200.722,-426.4C200.722,-426.4 381.278,-426.4 381.278,-426.4 387.278,-426.4 393.278,-432.4 393.278,-438.4 393.278,-438.4 393.278,-749.6 393.278,-749.6 393.278,-755.6 387.278,-761.6 381.278,-761.6 381.278,-761.6 200.722,-761.6 200.722,-761.6 194.722,-761.6 188.722,-755.6 188.722,-749.6 188.722,-749.6 188.722,-438.4 188.722,-438.4 188.722,-432.4 194.722,-426.4 200.722,-426.4"/>
<text text-anchor="middle" x="291" y="-743.6" font-family="Times,serif" font-size="14.00">User</text>
<polyline fill="none" stroke="black" points="188.722,-736.8 393.278,-736.8 "/>
<text text-anchor="start" x="196.722" y="-718.8" font-family="Times,serif" font-size="14.00">id :integer</text>
<text text-anchor="start" x="196.722" y="-702" font-family="Times,serif" font-size="14.00">email :string</text>
<text text-anchor="start" x="196.722" y="-685.2" font-family="Times,serif" font-size="14.00">encrypted_password :string</text>
<text text-anchor="start" x="196.722" y="-668.4" font-family="Times,serif" font-size="14.00">reset_password_token :string</text>
<text text-anchor="start" x="196.722" y="-651.6" font-family="Times,serif" font-size="14.00">reset_password_sent_at :datetime</text>
<text text-anchor="start" x="196.722" y="-634.8" font-family="Times,serif" font-size="14.00">remember_created_at :datetime</text>
<text text-anchor="start" x="196.722" y="-618" font-family="Times,serif" font-size="14.00">sign_in_count :integer</text>
<text text-anchor="start" x="196.722" y="-601.2" font-family="Times,serif" font-size="14.00">current_sign_in_at :datetime</text>
<text text-anchor="start" x="196.722" y="-584.4" font-family="Times,serif" font-size="14.00">last_sign_in_at :datetime</text>
<text text-anchor="start" x="196.722" y="-567.6" font-family="Times,serif" font-size="14.00">current_sign_in_ip :string</text>
<text text-anchor="start" x="196.722" y="-550.8" font-family="Times,serif" font-size="14.00">last_sign_in_ip :string</text>
<text text-anchor="start" x="196.722" y="-534" font-family="Times,serif" font-size="14.00">confirmation_token :string</text>
<text text-anchor="start" x="196.722" y="-517.2" font-family="Times,serif" font-size="14.00">confirmed_at :datetime</text>
<text text-anchor="start" x="196.722" y="-500.4" font-family="Times,serif" font-size="14.00">confirmation_sent_at :datetime</text>
<text text-anchor="start" x="196.722" y="-483.6" font-family="Times,serif" font-size="14.00">created_at :datetime</text>
<text text-anchor="start" x="196.722" y="-466.8" font-family="Times,serif" font-size="14.00">updated_at :datetime</text>
<text text-anchor="start" x="196.722" y="-450" font-family="Times,serif" font-size="14.00">first_name :string</text>
<text text-anchor="start" x="196.722" y="-433.2" font-family="Times,serif" font-size="14.00">last_name :string</text>
</g>
<!-- User&#45;&gt;GroupMembership -->
<g id="edge12" class="edge"><title>User&#45;&gt;GroupMembership</title>
<path fill="none" stroke="#5c530e" d="M209.414,-418.532C203.456,-405.791 197.697,-393.475 192.356,-382.054"/>
<ellipse fill="none" stroke="#5c530e" cx="211.245" cy="-422.448" rx="4.00002" ry="4.00002"/>
<polygon fill="#5c530e" stroke="#5c530e" points="192.209,-381.74 192.05,-370.775 190.091,-377.211 187.973,-372.682 187.973,-372.682 187.973,-372.682 190.091,-377.211 183.897,-374.588 192.209,-381.74 192.209,-381.74"/>
</g>
<!-- User&#45;&gt;RideMembership -->
<g id="edge13" class="edge"><title>User&#45;&gt;RideMembership</title>
<path fill="none" stroke="#69803f" d="M355.084,-418.34C358.6,-408.757 362.027,-399.417 365.292,-390.518"/>
<ellipse fill="none" stroke="#69803f" cx="353.625" cy="-422.316" rx="4.00001" ry="4.00001"/>
<polygon fill="#69803f" stroke="#69803f" points="365.323,-390.433 372.992,-382.595 367.045,-385.739 368.768,-381.045 368.768,-381.045 368.768,-381.045 367.045,-385.739 364.543,-379.495 365.323,-390.433 365.323,-390.433"/>
</g>
<!-- Goal -->
<g id="node10" class="node"><title>Goal</title>
<ellipse fill="none" stroke="black" cx="279" cy="-314" rx="29.216" ry="18"/>
<text text-anchor="middle" x="279" y="-308.4" font-family="Times,serif" font-size="14.00">Goal</text>
</g>
<!-- User&#45;&gt;Goal -->
<g id="edge11" class="edge"><title>User&#45;&gt;Goal</title>
<path fill="none" stroke="#24c1b9" d="M283.448,-418.044C282.18,-388.66 281.011,-361.578 280.19,-342.559"/>
<ellipse fill="none" stroke="#24c1b9" cx="283.622" cy="-422.075" rx="4" ry="4"/>
<polygon fill="#24c1b9" stroke="#24c1b9" points="280.18,-342.327 284.244,-332.142 279.964,-337.331 279.748,-332.336 279.748,-332.336 279.748,-332.336 279.964,-337.331 275.253,-332.53 280.18,-342.327 280.18,-342.327"/>
</g>
<!-- ActiveRecord::Base -->
<g id="node9" class="node"><title>ActiveRecord::Base</title>
<ellipse fill="none" stroke="black" cx="421" cy="-841" rx="88.2033" ry="18"/>
<text text-anchor="middle" x="421" y="-835.4" font-family="Times,serif" font-size="14.00">ActiveRecord::Base</text>
</g>
<!-- ActiveRecord::Base&#45;&gt;Group -->
<g id="edge2" class="edge"><title>ActiveRecord::Base&#45;&gt;Group</title>
<path fill="none" stroke="black" d="M388.516,-824.103C369.729,-815.413 345.435,-805.022 323,-798 246.803,-774.151 210.051,-810.983 147,-762 111.201,-734.188 90.2859,-686.51 78.7078,-649.2"/>
<polyline fill="none" stroke="black" points="77.2042,-644.24 78.6548,-649.025 "/>
</g>
<!-- ActiveRecord::Base&#45;&gt;GroupMembership -->
<g id="edge3" class="edge"><title>ActiveRecord::Base&#45;&gt;GroupMembership</title>
<path fill="none" stroke="black" d="M387.946,-824.282C369.182,-815.755 345.097,-805.464 323,-798 260.908,-777.026 221.38,-812.824 180,-762 133.475,-704.856 145.478,-486.87 154.809,-377.853"/>
<polyline fill="none" stroke="black" points="155.251,-372.745 154.82,-377.727 "/>
</g>
<!-- ActiveRecord::Base&#45;&gt;Hotspot -->
<g id="edge5" class="edge"><title>ActiveRecord::Base&#45;&gt;Hotspot</title>
<path fill="none" stroke="black" d="M422.46,-822.68C428.385,-754.08 451.579,-501.5 478,-426 481.758,-415.26 486.62,-404.417 492.001,-393.932"/>
<polyline fill="none" stroke="black" points="494.337,-389.462 492.021,-393.893 "/>
</g>
<!-- ActiveRecord::Base&#45;&gt;Point -->
<g id="edge6" class="edge"><title>ActiveRecord::Base&#45;&gt;Point</title>
<path fill="none" stroke="black" d="M505.876,-835.924C558.641,-828.466 622.751,-809.391 657,-762 775.36,-598.224 722.176,-347.041 677.578,-206.491"/>
<polyline fill="none" stroke="black" points="675.996,-201.538 677.518,-206.301 "/>
</g>
<!-- ActiveRecord::Base&#45;&gt;Ride -->
<g id="edge9" class="edge"><title>ActiveRecord::Base&#45;&gt;Ride</title>
<path fill="none" stroke="black" d="M432.921,-822.879C443.699,-807.226 459.844,-783.333 473,-762 487.093,-739.148 501.715,-714.157 515.141,-690.631"/>
<polyline fill="none" stroke="black" points="517.633,-686.256 515.158,-690.6 "/>
</g>
<!-- ActiveRecord::Base&#45;&gt;RideMembership -->
<g id="edge10" class="edge"><title>ActiveRecord::Base&#45;&gt;RideMembership</title>
<path fill="none" stroke="black" d="M420.421,-822.635C418.477,-765.721 411.753,-579.665 402,-426 401.184,-413.139 400.182,-399.451 399.148,-386.238"/>
<polyline fill="none" stroke="black" points="398.734,-381.004 399.128,-385.989 "/>
</g>
<!-- ActiveRecord::Base&#45;&gt;User -->
<g id="edge14" class="edge"><title>ActiveRecord::Base&#45;&gt;User</title>
<path fill="none" stroke="black" d="M411.859,-822.772C404.734,-809.344 394.033,-789.177 381.891,-766.295"/>
<polyline fill="none" stroke="black" points="379.444,-761.684 381.788,-766.1 "/>
</g>
</g>
</svg>
